<svg xmlns="http://www.w3.org/2000/svg" width="1200" height="300" viewBox="0 0 1200 300">
  <defs>
    <linearGradient id="mistyBackground" x1="0%" y1="0%" x2="100%" y2="100%">
      <stop offset="0%" stop-color="rgba(255,255,255,0.02)" />
      <stop offset="100%" stop-color="rgba(255,255,255,0.05)" />
    </linearGradient>
  </defs>
  
  <!-- 基础背景 -->
  <rect width="100%" height="100%" fill="url(#mistyBackground)" />
  
  <!-- 远山 -->
  <path d="M0,200 Q200,150 300,180 Q400,210 500,170 Q600,130 700,160 Q800,190 900,150 Q1000,110 1100,140 Q1200,170 1200,200 L1200,300 L0,300 Z" 
        fill="rgba(255,255,255,0.03)" />
  
  <!-- 中远山 -->
  <path d="M0,220 Q150,190 250,210 Q350,230 450,200 Q550,170 650,190 Q750,210 850,180 Q950,150 1050,170 Q1150,190 1200,220 L1200,300 L0,300 Z" 
        fill="rgba(255,255,255,0.04)" />
  
  <!-- 近山 -->
  <path d="M0,240 Q100,220 200,235 Q300,250 400,230 Q500,210 600,225 Q700,240 800,220 Q900,200 1000,215 Q1100,230 1200,240 L1200,300 L0,300 Z" 
        fill="rgba(255,255,255,0.05)" />
  
  <!-- 水面 -->
  <path d="M0,260 L1200,260 L1200,300 L0,300 Z" fill="rgba(255,255,255,0.03)" />
  <path d="M100,270 Q200,265 300,270 Q400,275 500,270 Q600,265 700,270 Q800,275 900,270 Q1000,265 1100,270" 
        fill="none" stroke="rgba(255,255,255,0.1)" stroke-width="0.5" />
  <path d="M150,280 Q250,275 350,280 Q450,285 550,280 Q650,275 750,280 Q850,285 950,280 Q1050,275 1150,280" 
        fill="none" stroke="rgba(255,255,255,0.1)" stroke-width="0.5" />
  
  <!-- 船 -->
  <path d="M700,250 L720,250 Q725,245 730,250 L750,250 L740,255 L710,255 Z" fill="rgba(255,255,255,0.2)" />
  
  <!-- 树 -->
  <path d="M200,240 L200,210" fill="none" stroke="rgba(255,255,255,0.2)" stroke-width="1" />
  <path d="M200,210 C190,205 185,195 190,185 C195,175 205,170 215,175 C225,165 240,170 245,180 C250,165 265,160 275,170 C285,155 300,160 305,175 C315,165 330,170 325,185 C335,180 345,190 340,200 C350,195 360,205 350,215 C340,220 330,215 325,210 C320,220 310,225 300,215 C290,225 275,220 270,210 C260,225 245,225 235,215 C225,225 215,220 210,210 C200,220 185,215 195,205 C185,210 175,205 185,195 C175,200 170,190 178,183 C170,180 175,170 182,175 C175,165 190,160 200,165" 
        fill="rgba(255,255,255,0.07)" stroke="rgba(255,255,255,0.1)" stroke-width="0.5" />
  
  <!-- 另一棵树 -->
  <path d="M950,230 L950,210" fill="none" stroke="rgba(255,255,255,0.15)" stroke-width="0.8" />
  <path d="M950,210 C945,205 940,195 945,190 C937,187 935,180 942,177 C939,172 945,167 950,170 C955,165 960,168 958,175 C965,172 970,178 965,183 C972,180 975,190 968,192 C973,195 970,202 965,200 C960,205 955,202 955,197" 
        fill="rgba(255,255,255,0.05)" stroke="rgba(255,255,255,0.08)" stroke-width="0.5" />
  
  <!-- 飞鸟 -->
  <path d="M400,100 C405,98 410,102 415,100" fill="none" stroke="rgba(255,255,255,0.2)" stroke-width="0.5" />
  <path d="M800,120 C805,118 810,122 815,120" fill="none" stroke="rgba(255,255,255,0.2)" stroke-width="0.5" />
  <path d="M750,90 C755,88 760,92 765,90" fill="none" stroke="rgba(255,255,255,0.2)" stroke-width="0.5" />
  
  <!-- 中文字符 -->
  <text x="600" y="160" font-family="serif" font-size="100" fill="rgba(255,255,255,0.03)" text-anchor="middle" dominant-baseline="middle">山水</text>
  
  <!-- 印章 -->
  <g transform="translate(1000, 80)">
    <rect x="-20" y="-20" width="40" height="40" fill="rgba(255,255,255,0.03)" stroke="rgba(255,255,255,0.1)" stroke-width="0.5" />
    <text x="0" y="5" font-family="serif" font-size="12" fill="rgba(255,255,255,0.2)" text-anchor="middle" dominant-baseline="middle">印</text>
  </g>
</svg> 